# xmcd CD database file
#
# Track frame offsets:
#	150
#	30074
#	52754
#	80840
#	106775
#	134917
#	158894
#	161142
#	194231
#	225619
#
# Disc length: 3349 seconds
#
# Revision: 0
# Processed by: cddbd v1.5.2PL0 Copyright (c) Steve Scherf et al.
# Submitted via: CDex 1.51
#
DISCID=800d130a
DTITLE=Vasko The Patch - Acoustics
DYEAR=2006
DGENRE=Blues
TTITLE0=Roden v Poduene
TTITLE1=Karaj da varvi tova e blues
TTITLE2=Mastica
TTITLE3=Snegat na spomena
TTITLE4=Taratajka
TTITLE5=Niama bira
TTITLE6=Aide nazdrave
TTITLE7=Most
TTITLE8=Lubov i pari
TTITLE9=Tam kadeto blusat se e rodil
EXTD=YEAR: 2006
EXTT0=
EXTT1=
EXTT2=
EXTT3=
EXTT4=
EXTT5=
EXTT6=
EXTT7=
EXTT8=
EXTT9=
PLAYORDER=
